# xmcd
#
# Track frame offsets:
#	150
#	17092
#	34729
#	55608
#	72940
#	89305
#	106769
#	123449
#	141731
#	159598
#	178102
#	194357
#
# Disc length: 2984 seconds
#
# Revision: 1
# Processed by: cddbd v1.4PL0 Copyright (c) Steve Scherf et al.
# Submitted via: audiograbber 1.81.03
#
DISCID=a40ba60c
DTITLE=Julie - Home
DYEAR=2003
DGENRE=Pop
TTITLE0=Permanent
TTITLE1=Shout (Our Love Will Be The Light)
TTITLE2=Every Little Part Of Me
TTITLE3=Completely Fallen
TTITLE4=Home
TTITLE5=I Die A Little
TTITLE6=What A Fool
TTITLE7=Out Of My Head
TTITLE8=Running Backwards Over The Hills
TTITLE9=Never Really Mine
TTITLE10=Move On
TTITLE11=Could You Be Mine
EXTD=
EXTT0=
EXTT1=
EXTT2=
EXTT3=
EXTT4=
EXTT5=
EXTT6=
EXTT7=
EXTT8=
EXTT9=
EXTT10=
EXTT11=
PLAYORDER=
